<svg width="403" height="403" viewBox="0 0 403 403" fill="none" xmlns="http://www.w3.org/2000/svg">
<path d="M321.141 264.469H270.766C267.288 264.469 264.469 267.288 264.469 270.766V321.141C264.469 324.618 267.288 327.438 270.766 327.438H321.141C324.618 327.438 327.438 324.618 327.438 321.141V270.766C327.438 267.288 324.618 264.469 321.141 264.469Z" fill="white"/>
<path d="M258.172 214.094H220.391C216.913 214.094 214.094 216.913 214.094 220.391V258.172C214.094 261.65 216.913 264.469 220.391 264.469H258.172C261.65 264.469 264.469 261.65 264.469 258.172V220.391C264.469 216.913 261.65 214.094 258.172 214.094Z" fill="white"/>
<path d="M371.516 327.438H333.734C330.257 327.438 327.438 330.257 327.438 333.734V371.516C327.438 374.993 330.257 377.812 333.734 377.812H371.516C374.993 377.812 377.812 374.993 377.812 371.516V333.734C377.812 330.257 374.993 327.438 371.516 327.438Z" fill="white"/>
<path d="M371.516 214.094H346.328C342.85 214.094 340.031 216.913 340.031 220.391V245.578C340.031 249.056 342.85 251.875 346.328 251.875H371.516C374.993 251.875 377.812 249.056 377.812 245.578V220.391C377.812 216.913 374.993 214.094 371.516 214.094Z" fill="white"/>
<path d="M245.578 340.031H220.391C216.913 340.031 214.094 342.85 214.094 346.328V371.516C214.094 374.993 216.913 377.812 220.391 377.812H245.578C249.056 377.812 251.875 374.993 251.875 371.516V346.328C251.875 342.85 249.056 340.031 245.578 340.031Z" fill="white"/>
<path d="M352.625 25.1875H239.281C232.601 25.1875 226.195 27.8412 221.471 32.5647C216.747 37.2883 214.094 43.6949 214.094 50.375V163.719C214.094 170.399 216.747 176.805 221.471 181.529C226.195 186.253 232.601 188.906 239.281 188.906H352.625C359.305 188.906 365.712 186.253 370.435 181.529C375.159 176.805 377.812 170.399 377.812 163.719V50.375C377.812 43.6949 375.159 37.2883 370.435 32.5647C365.712 27.8412 359.305 25.1875 352.625 25.1875ZM327.438 132.234C327.438 133.904 326.774 135.506 325.593 136.687C324.412 137.868 322.811 138.531 321.141 138.531H270.766C269.096 138.531 267.494 137.868 266.313 136.687C265.132 135.506 264.469 133.904 264.469 132.234V81.8594C264.469 80.1893 265.132 78.5877 266.313 77.4068C267.494 76.2259 269.096 75.5625 270.766 75.5625H321.141C322.811 75.5625 324.412 76.2259 325.593 77.4068C326.774 78.5877 327.438 80.1893 327.438 81.8594V132.234Z" fill="white"/>
<path d="M163.719 25.1875H50.375C43.6949 25.1875 37.2883 27.8412 32.5647 32.5647C27.8412 37.2883 25.1875 43.6949 25.1875 50.375V163.719C25.1875 170.399 27.8412 176.805 32.5647 181.529C37.2883 186.253 43.6949 188.906 50.375 188.906H163.719C170.399 188.906 176.805 186.253 181.529 181.529C186.253 176.805 188.906 170.399 188.906 163.719V50.375C188.906 43.6949 186.253 37.2883 181.529 32.5647C176.805 27.8412 170.399 25.1875 163.719 25.1875ZM138.531 132.234C138.531 133.904 137.868 135.506 136.687 136.687C135.506 137.868 133.904 138.531 132.234 138.531H81.8594C80.1893 138.531 78.5877 137.868 77.4068 136.687C76.2259 135.506 75.5625 133.904 75.5625 132.234V81.8594C75.5625 80.1893 76.2259 78.5877 77.4068 77.4068C78.5877 76.2259 80.1893 75.5625 81.8594 75.5625H132.234C133.904 75.5625 135.506 76.2259 136.687 77.4068C137.868 78.5877 138.531 80.1893 138.531 81.8594V132.234Z" fill="white"/>
<path d="M163.719 214.094H50.375C43.6949 214.094 37.2883 216.747 32.5647 221.471C27.8412 226.195 25.1875 232.601 25.1875 239.281V352.625C25.1875 359.305 27.8412 365.712 32.5647 370.435C37.2883 375.159 43.6949 377.812 50.375 377.812H163.719C170.399 377.812 176.805 375.159 181.529 370.435C186.253 365.712 188.906 359.305 188.906 352.625V239.281C188.906 232.601 186.253 226.195 181.529 221.471C176.805 216.747 170.399 214.094 163.719 214.094ZM138.531 321.141C138.531 322.811 137.868 324.412 136.687 325.593C135.506 326.774 133.904 327.438 132.234 327.438H81.8594C80.1893 327.438 78.5877 326.774 77.4068 325.593C76.2259 324.412 75.5625 322.811 75.5625 321.141V270.766C75.5625 269.096 76.2259 267.494 77.4068 266.313C78.5877 265.132 80.1893 264.469 81.8594 264.469H132.234C133.904 264.469 135.506 265.132 136.687 266.313C137.868 267.494 138.531 269.096 138.531 270.766V321.141Z" fill="white"/>
</svg>
