<svg width="351" height="309" viewBox="0 0 351 309" fill="none" xmlns="http://www.w3.org/2000/svg">
<g clip-path="url(#clip0_1467_1597)">
<path d="M274.619 35.58L55.5011 32.4415L136.339 111.903L274.619 35.58ZM152.163 139.807L180.385 251.566L291.643 62.7709L152.163 139.807ZM334.205 4.56587C337.182 4.40916 340.143 5.08802 342.754 6.52561C345.364 7.9632 347.52 10.1021 348.977 12.7002C350.433 15.2983 351.133 18.2518 350.996 21.2264C350.858 24.2009 349.89 27.0778 348.201 29.5312L188.697 300.184C187.234 303.103 184.911 305.503 182.041 307.064C179.171 308.624 175.891 309.268 172.643 308.911C169.395 308.554 166.335 307.211 163.874 305.065C161.412 302.918 159.668 300.07 158.876 296.903L119.228 139.807L4.77067 27.3058C2.5057 25.0748 0.959464 22.219 0.330202 19.1044C-0.29906 15.9899 0.0173381 12.7585 1.23883 9.82479C2.46032 6.89105 4.53123 4.38857 7.18602 2.63824C9.84082 0.887915 12.9585 -0.030495 16.1393 0.000772631L334.205 4.56587Z" fill="white"/>
</g>
<defs>
<clipPath id="clip0_1467_1597">
<rect width="351" height="309" fill="white"/>
</clipPath>
</defs>
</svg>
