<svg width="372" height="372" viewBox="0 0 372 372" fill="none" xmlns="http://www.w3.org/2000/svg">
<g clip-path="url(#clip0_1472_1638)">
<path d="M218.973 186L160.636 127.664C155.564 122.591 155.564 114.982 160.636 109.909C165.709 104.836 173.318 104.836 178.391 109.909L246.027 177.545C251.1 182.618 251.1 190.227 246.027 195.3L178.391 262.936C173.318 268.009 165.709 268.009 160.636 262.936C155.564 257.864 155.564 250.255 160.636 245.182L218.973 186ZM186 372C82.8545 372 0 289.145 0 186C0 82.8545 82.8545 0 186 0C289.145 0 372 82.8545 372 186C372 289.145 289.145 372 186 372ZM186 355.091C279 355.091 355.091 279 355.091 186C355.091 93 279 16.9091 186 16.9091C93 16.9091 16.9091 93 16.9091 186C16.9091 279 93 355.091 186 355.091Z" fill="white"/>
<circle cx="186" cy="186" r="173" stroke="white" stroke-width="26"/>
</g>
<defs>
<clipPath id="clip0_1472_1638">
<rect width="372" height="372" fill="white"/>
</clipPath>
</defs>
</svg>
