<svg width="513" height="513" viewBox="0 0 513 513" fill="none" xmlns="http://www.w3.org/2000/svg">
<path d="M448.875 191.093C448.652 189.129 448.222 187.194 447.593 185.321V183.398C446.565 181.2 445.194 179.179 443.531 177.413L315.281 49.1625C313.514 47.4999 311.494 46.129 309.296 45.1012C308.658 45.0106 308.011 45.0106 307.373 45.1012C305.201 43.856 302.803 43.0566 300.319 42.75H213.75C196.743 42.75 180.433 49.506 168.407 61.5318C156.381 73.5576 149.625 89.868 149.625 106.875V128.25H128.25C111.243 128.25 94.9325 135.006 82.9068 147.032C70.881 159.058 64.125 175.368 64.125 192.375V406.125C64.125 423.132 70.881 439.442 82.9068 451.468C94.9325 463.494 111.243 470.25 128.25 470.25H299.25C316.257 470.25 332.567 463.494 344.593 451.468C356.619 439.442 363.375 423.132 363.375 406.125V384.75H384.75C401.757 384.75 418.067 377.994 430.093 365.968C442.119 353.942 448.875 337.632 448.875 320.625V192.375C448.875 192.375 448.875 192.375 448.875 191.093ZM320.625 115.639L375.986 171H342C336.331 171 330.894 168.748 326.886 164.739C322.877 160.731 320.625 155.294 320.625 149.625V115.639ZM320.625 406.125C320.625 411.794 318.373 417.231 314.364 421.239C310.356 425.248 304.919 427.5 299.25 427.5H128.25C122.581 427.5 117.144 425.248 113.136 421.239C109.127 417.231 106.875 411.794 106.875 406.125V192.375C106.875 186.706 109.127 181.269 113.136 177.261C117.144 173.252 122.581 171 128.25 171H149.625V320.625C149.625 337.632 156.381 353.942 168.407 365.968C180.433 377.994 196.743 384.75 213.75 384.75H320.625V406.125ZM406.125 320.625C406.125 326.294 403.873 331.731 399.864 335.739C395.856 339.748 390.419 342 384.75 342H213.75C208.081 342 202.644 339.748 198.636 335.739C194.627 331.731 192.375 326.294 192.375 320.625V106.875C192.375 101.206 194.627 95.7692 198.636 91.7606C202.644 87.752 208.081 85.5 213.75 85.5H277.875V149.625C277.875 166.632 284.631 182.942 296.657 194.968C308.683 206.994 324.993 213.75 342 213.75H406.125V320.625Z" fill="white"/>
</svg>
