<svg width="456" height="456" viewBox="0 0 456 456" fill="none" xmlns="http://www.w3.org/2000/svg">
<g clip-path="url(#clip0_1467_1630)">
<path d="M228 456C353.921 456 456 353.921 456 228C456 102.079 353.921 0 228 0C102.079 0 0 102.079 0 228C0 353.921 102.079 456 228 456Z" fill="white"/>
<path d="M332.04 100.293H374.586L286.024 192.118C253.958 225.363 201.973 225.363 169.976 192.118L81.4137 100.293H123.96L191.215 170.046C211.551 191.077 244.449 191.077 264.716 170.046L332.04 100.293ZM123.405 355.709H80.8584L169.976 263.259C202.042 230.014 254.027 230.014 286.093 263.259L375.211 355.709H332.665L264.855 285.33C244.519 264.3 211.62 264.3 191.353 285.33L123.405 355.709Z" fill="#8591A2"/>
</g>
<defs>
<clipPath id="clip0_1467_1630">
<rect width="456" height="456" fill="white"/>
</clipPath>
</defs>
</svg>
