<svg width="420" height="420" viewBox="0 0 420 420" fill="none" xmlns="http://www.w3.org/2000/svg">
<path d="M210 52.5C231.287 52.5 251.918 56.6426 271.318 64.8867C290.063 72.8027 306.92 84.1641 321.398 98.6426C335.877 113.121 347.238 129.979 355.154 148.723C363.357 168.123 367.541 188.754 367.541 210.041C367.541 231.328 363.398 251.959 355.154 271.359C347.238 290.104 335.877 306.961 321.398 321.439C306.92 335.918 290.063 347.279 271.318 355.195C251.918 363.398 231.287 367.582 210 367.582C188.713 367.582 168.082 363.439 148.682 355.195C129.937 347.279 113.08 335.918 98.6016 321.439C84.123 306.961 72.7617 290.104 64.8457 271.359C56.6426 251.959 52.459 231.328 52.459 210.041C52.459 188.754 56.6016 168.123 64.8457 148.723C72.7617 129.979 84.123 113.121 98.6016 98.6426C113.08 84.1641 129.937 72.8027 148.682 64.8867C168.082 56.6426 188.713 52.5 210 52.5ZM210 26.25C108.527 26.25 26.25 108.527 26.25 210C26.25 311.473 108.527 393.75 210 393.75C311.473 393.75 393.75 311.473 393.75 210C393.75 108.527 311.473 26.25 210 26.25Z" fill="white"/>
<path d="M288.75 183.75H236.25V131.25C236.25 116.812 224.438 105 210 105C195.562 105 183.75 116.812 183.75 131.25V183.75H131.25C116.812 183.75 105 195.562 105 210C105 224.438 116.812 236.25 131.25 236.25H183.75V288.75C183.75 303.188 195.562 315 210 315C224.438 315 236.25 303.188 236.25 288.75V236.25H288.75C303.188 236.25 315 224.438 315 210C315 195.562 303.188 183.75 288.75 183.75Z" fill="white"/>
</svg>
