<svg width="1653" height="1623" viewBox="0 0 1653 1623" fill="none" xmlns="http://www.w3.org/2000/svg">
<g clip-path="url(#clip0_1450_1622)">
<path d="M407.742 1400.37V1177.75H493.287C504.524 1177.75 514.487 1180.5 523.18 1186.01C532.084 1191.53 539.08 1199.16 544.168 1208.91C549.257 1218.45 551.801 1229.48 551.801 1241.99C551.801 1255.35 549.257 1267.22 544.168 1277.61C539.08 1287.79 532.084 1295.84 523.18 1301.78C514.487 1307.51 504.524 1310.37 493.287 1310.37H423.642V1400.37H407.742ZM423.642 1294.47H496.149C503.57 1294.47 510.141 1292.24 515.865 1287.79C521.801 1283.12 526.466 1276.87 529.858 1269.02C533.249 1260.96 534.946 1251.74 534.946 1241.35C534.946 1232.24 533.249 1224.07 529.858 1216.86C526.466 1209.66 521.801 1204.04 515.865 1200.01C510.141 1195.77 503.57 1193.65 496.149 1193.65H423.642V1294.47ZM591.021 1400.37V1234.99H606.285L607.875 1271.88H605.649C607.98 1264.89 611.585 1258.32 616.462 1252.17C621.337 1246.02 627.274 1241.03 634.27 1237.22C641.478 1233.4 649.746 1231.49 659.075 1231.49C662.678 1231.49 665.965 1231.81 668.934 1232.45C672.114 1232.87 674.976 1233.4 677.52 1234.04L672.75 1252.48C669.781 1251.21 666.919 1250.36 664.163 1249.94C661.406 1249.52 658.969 1249.3 656.849 1249.3C648.368 1249.3 640.949 1250.79 634.588 1253.76C628.44 1256.73 623.245 1260.86 619.006 1266.16C614.977 1271.25 611.903 1277.08 609.784 1283.65C607.875 1290.22 606.921 1297.12 606.921 1304.32V1400.37H591.021ZM765.693 1403.55C749.157 1403.55 734.422 1399.84 721.49 1392.42C708.769 1385 698.698 1374.72 691.279 1361.57C684.069 1348.43 680.466 1333.48 680.466 1316.73C680.466 1300.19 684.069 1285.56 691.279 1272.84C698.698 1259.91 708.769 1249.83 721.49 1242.63C734.422 1235.2 749.157 1231.49 765.693 1231.49C782.23 1231.49 796.858 1235.2 809.579 1242.63C822.511 1249.83 832.58 1259.91 839.79 1272.84C846.997 1285.56 850.602 1300.19 850.602 1316.73C850.602 1333.48 846.997 1348.43 839.79 1361.57C832.58 1374.72 822.511 1385 809.579 1392.42C796.858 1399.84 782.23 1403.55 765.693 1403.55ZM765.693 1387.65C778.837 1387.65 790.498 1384.58 800.674 1378.43C811.062 1372.28 819.119 1363.9 824.843 1353.3C830.779 1342.7 833.747 1330.51 833.747 1316.73C833.747 1303.37 830.779 1291.5 824.843 1281.11C819.119 1270.51 811.062 1262.24 800.674 1256.3C790.498 1250.36 778.837 1247.4 765.693 1247.4C752.337 1247.4 740.464 1250.36 730.076 1256.3C719.9 1262.24 711.843 1270.51 705.907 1281.11C700.183 1291.5 697.321 1303.37 697.321 1316.73C697.321 1330.51 700.183 1342.7 705.907 1353.3C711.843 1363.9 719.9 1372.28 730.076 1378.43C740.464 1384.58 752.337 1387.65 765.693 1387.65ZM897.699 1400.37V1202.87C897.699 1195.87 899.29 1189.72 902.47 1184.42C905.65 1178.91 910.208 1174.56 916.144 1171.38C922.08 1168.2 928.971 1166.61 936.815 1166.61C943.6 1166.61 949.535 1167.78 954.623 1170.11C959.712 1172.44 964.057 1175.73 967.662 1179.97L961.62 1192.69C957.592 1188.24 953.351 1185.27 948.899 1183.79C944.447 1182.09 940.206 1181.24 936.179 1181.24C931.302 1181.24 927.168 1182.09 923.776 1183.79C920.596 1185.48 918.052 1188.03 916.144 1191.42C914.447 1194.6 913.6 1198.52 913.6 1203.19V1400.37H907.876C905.756 1400.37 903.848 1400.37 902.152 1400.37C900.668 1400.37 899.183 1400.37 897.699 1400.37ZM865.58 1249.62V1234.99H958.758V1249.62H865.58ZM1000.73 1400.37V1234.99H1016.64V1400.37H1000.73ZM1008.69 1200.33C1004.02 1200.33 1000.42 1199.05 997.873 1196.51C995.329 1193.97 994.057 1190.47 994.057 1186.01C994.057 1181.77 995.329 1178.38 997.873 1175.84C1000.42 1173.08 1004.02 1171.7 1008.69 1171.7C1013.35 1171.7 1016.95 1172.97 1019.5 1175.52C1022.04 1178.06 1023.31 1181.56 1023.31 1186.01C1023.31 1190.26 1022.04 1193.75 1019.5 1196.51C1016.95 1199.05 1013.35 1200.33 1008.69 1200.33ZM1071.16 1400.37V1165.02H1087.06V1400.37H1071.16ZM1200.09 1403.55C1184.19 1403.55 1169.98 1399.95 1157.47 1392.74C1145.18 1385.53 1135.53 1375.46 1128.54 1362.53C1121.54 1349.59 1118.04 1334.54 1118.04 1317.36C1118.04 1304.85 1119.95 1293.4 1123.77 1283.02C1127.79 1272.63 1133.31 1263.62 1140.3 1255.98C1147.3 1248.14 1155.67 1242.1 1165.42 1237.85C1175.39 1233.61 1186.2 1231.49 1197.86 1231.49C1209.31 1231.49 1219.59 1233.4 1228.71 1237.22C1238.04 1241.03 1245.88 1246.55 1252.24 1253.76C1258.6 1260.75 1263.37 1269.13 1266.55 1278.88C1269.73 1288.42 1271.11 1299.02 1270.69 1310.69L1270.37 1319.27H1129.81V1304.64H1261.78L1254.79 1310.37V1302.73C1254.79 1294.25 1252.67 1285.77 1248.43 1277.29C1244.4 1268.81 1238.14 1261.71 1229.66 1255.98C1221.18 1250.26 1210.48 1247.4 1197.54 1247.4C1185.46 1247.4 1174.65 1250.05 1165.11 1255.35C1155.78 1260.65 1148.36 1268.39 1142.85 1278.56C1137.55 1288.74 1134.9 1301.36 1134.9 1316.41C1134.9 1330.83 1137.55 1343.44 1142.85 1354.26C1148.15 1364.86 1155.78 1373.13 1165.74 1379.06C1175.92 1384.79 1188.32 1387.65 1202.95 1387.65C1210.79 1387.65 1218.85 1386.38 1227.12 1383.83C1235.39 1381.29 1244.72 1375.78 1255.1 1367.3L1263.37 1379.06C1258.71 1383.52 1253.2 1387.65 1246.84 1391.47C1240.48 1395.07 1233.37 1398.04 1225.53 1400.37C1217.69 1402.49 1209.2 1403.55 1200.09 1403.55Z" fill="white"/>
<path d="M839.251 968.145C1029.53 968.145 1183.78 813.893 1183.78 623.613C1183.78 433.334 1029.53 279.082 839.251 279.082C648.972 279.082 494.72 433.334 494.72 623.613C494.72 813.893 648.972 968.145 839.251 968.145Z" stroke="white" stroke-width="35" stroke-miterlimit="10" stroke-linejoin="round"/>
<path d="M1068.94 876.27C1068.94 749.413 966.108 646.582 839.251 646.582C712.395 646.582 609.564 749.413 609.564 876.27" stroke="white" stroke-width="30" stroke-miterlimit="10" stroke-linejoin="round"/>
<path d="M839.251 646.582C915.363 646.582 977.064 584.881 977.064 508.77C977.064 432.658 915.363 370.957 839.251 370.957C763.14 370.957 701.439 432.658 701.439 508.77C701.439 584.881 763.14 646.582 839.251 646.582Z" stroke="white" stroke-width="30" stroke-miterlimit="10" stroke-linejoin="round"/>
</g>
<defs>
<clipPath id="clip0_1450_1622">
<rect width="1652" height="1622" fill="white" transform="translate(0.5 0.671875)"/>
</clipPath>
</defs>
</svg>
