<svg width="1652" height="1623" viewBox="0 0 1652 1623" fill="none" xmlns="http://www.w3.org/2000/svg">
<path d="M910.759 224.84C875.516 228.684 841.161 247.61 820.429 274.816C810.952 287.236 800.587 309.119 796.736 324.497C794.367 334.551 793.775 340.761 793.775 356.434C793.775 374.177 794.367 377.43 798.81 394.877C813.618 451.359 815.987 493.647 805.325 515.53C799.994 526.767 793.183 531.499 781.928 532.386C774.524 532.977 769.49 532.09 731.581 521.149C685.676 507.841 672.941 505.771 654.579 507.841C638.586 509.616 627.628 512.868 613.412 519.67C584.388 533.569 563.657 556.043 552.107 585.615C545.887 601.879 548.849 608.681 564.842 613.117L573.43 615.482L568.099 633.817C565.138 643.871 562.769 654.221 562.769 656.587C562.769 661.614 566.915 667.233 572.246 669.303C574.319 670.19 684.491 702.127 817.172 739.979C987.465 788.773 1059.14 808.881 1061.8 808.29C1068.32 806.811 1071.57 800.897 1077.5 781.084C1080.46 770.734 1083.12 762.158 1083.12 762.158C1083.12 762.158 1087.57 763.045 1092.6 764.524C1100.89 767.185 1102.38 767.185 1106.82 765.115C1109.48 763.932 1112.74 761.271 1113.93 759.201C1120.15 747.372 1121.33 717.209 1116.3 697.1C1108.89 666.641 1090.23 639.731 1065.36 623.171C1050.55 613.412 1043.74 610.751 996.646 597.148C975.322 590.938 955.775 584.728 953.406 583.249C934.156 571.42 933.859 549.833 952.518 520.261C964.068 501.927 978.284 485.367 1004.05 460.527C1034.55 430.659 1044.03 415.578 1051.44 385.414C1054.99 370.924 1054.69 341.648 1050.84 326.271C1040.48 284.871 1015.01 252.933 979.172 236.077C957.848 226.614 932.675 222.474 910.759 224.84ZM948.667 257.073C991.315 268.015 1020.63 300.248 1026.26 342.831C1028.93 363.236 1023 388.963 1011.16 407.593C1008.2 412.325 995.461 426.815 982.726 439.531C951.037 471.764 933.563 493.943 921.421 517.6C902.762 554.269 903.651 580.883 924.382 599.809C935.636 610.159 945.706 614.299 991.611 627.311C1041.37 641.801 1048.47 644.758 1064.47 661.023C1076.61 673.147 1084.01 685.567 1087.57 700.649C1089.64 708.633 1090.23 730.516 1088.46 731.995C1087.86 732.586 1083.72 731.699 1078.68 729.925C1069.5 726.968 604.231 593.304 592.977 590.346C589.423 589.459 585.869 588.276 584.981 587.981C582.019 586.798 589.719 573.786 600.381 562.845C614.893 547.467 629.405 540.074 651.321 536.822C666.721 534.456 676.791 536.526 725.361 550.129C748.462 556.635 771.267 562.253 776.301 562.845C806.806 565.802 828.722 549.537 837.014 517.896C844.715 487.733 841.457 438.052 828.426 389.259C823.983 372.403 823.391 368.559 823.391 352.886C823.391 337.508 823.687 334.255 827.241 324.201C835.83 299.065 853.303 278.069 876.996 264.466C896.543 253.229 923.198 250.567 948.667 257.073ZM852.711 696.213C962.883 727.855 1053.21 753.878 1053.51 753.878C1053.51 753.878 1052.32 758.905 1050.84 764.524C1048.47 771.621 1046.99 774.578 1045.51 774.578C1041.96 773.987 596.827 645.941 596.235 645.35C595.939 645.054 597.123 640.323 598.9 634.408L601.862 624.058L627.332 631.451C640.955 635.295 742.539 664.571 852.711 696.213Z" fill="white"/>
<path d="M538.187 895.527C532.856 899.667 530.783 906.764 533.448 912.678C537.595 922.733 515.679 922.141 800.29 922.141C986.576 922.141 1057.65 921.845 1059.73 920.663C1065.06 918.001 1067.72 913.565 1067.72 907.06C1067.72 902.032 1066.84 900.258 1063.58 897.005L1059.43 892.865H800.29C543.222 892.865 541.741 892.865 538.187 895.527Z" fill="white"/>
<path d="M157 1403.22C141.131 1403.22 126.5 1400.54 113.104 1395.18C99.9147 1389.62 88.3735 1381.89 78.4815 1372C68.795 1361.9 61.2739 1350.05 55.9152 1336.45C50.5565 1322.84 47.8779 1308 47.8779 1291.93C47.8779 1275.85 50.4545 1261.22 55.6061 1248.03C60.7577 1234.63 68.0747 1222.99 77.5541 1213.09C87.2405 1203.2 98.4711 1195.57 111.249 1190.22C124.232 1184.86 138.452 1182.18 153.908 1182.18C163.595 1182.18 173.383 1183.83 183.275 1187.12C193.167 1190.22 202.338 1194.54 210.788 1200.11C219.238 1205.67 226.244 1212.06 231.808 1219.28L220.371 1231.33C215.837 1224.74 209.964 1218.97 202.75 1214.02C195.537 1208.87 187.707 1204.85 179.257 1201.96C170.807 1199.08 162.358 1197.64 153.908 1197.64C140.925 1197.64 128.869 1200.01 117.741 1204.75C106.818 1209.28 97.3382 1215.77 89.3009 1224.22C81.4692 1232.67 75.2866 1242.67 70.7533 1254.21C66.4255 1265.75 64.2616 1278.32 64.2616 1291.93C64.2616 1305.74 66.5291 1318.51 71.0624 1330.26C75.5958 1342.01 81.9854 1352.21 90.2283 1360.87C98.6782 1369.32 108.467 1375.91 119.595 1380.65C130.929 1385.4 143.398 1387.77 157 1387.77C165.242 1387.77 173.383 1386.63 181.421 1384.36C189.663 1381.89 197.082 1378.59 203.678 1374.47C210.273 1370.14 215.528 1365.3 219.443 1359.94L227.79 1373.54C222.844 1379.31 216.455 1384.47 208.624 1389C200.999 1393.33 192.653 1396.83 183.584 1399.51C174.723 1401.99 165.861 1403.22 157 1403.22ZM263.287 1400.13V1239.37H278.125L279.67 1275.23H277.506C279.772 1268.43 283.276 1262.04 288.017 1256.07C292.756 1250.09 298.527 1245.25 305.328 1241.54C312.334 1237.83 320.371 1235.97 329.44 1235.97C332.942 1235.97 336.137 1236.28 339.023 1236.9C342.114 1237.31 344.896 1237.83 347.369 1238.44L342.732 1256.37C339.846 1255.14 337.064 1254.31 334.386 1253.9C331.706 1253.49 329.336 1253.28 327.276 1253.28C319.031 1253.28 311.819 1254.73 305.637 1257.61C299.66 1260.5 294.61 1264.52 290.49 1269.67C286.573 1274.61 283.585 1280.28 281.525 1286.67C279.67 1293.06 278.743 1299.76 278.743 1306.77V1400.13H263.287ZM429.988 1403.22C414.531 1403.22 400.723 1399.72 388.565 1392.71C376.611 1385.7 367.235 1375.91 360.434 1363.34C353.633 1350.77 350.233 1336.14 350.233 1319.44C350.233 1307.28 352.088 1296.15 355.797 1286.05C359.712 1275.96 365.071 1267.2 371.872 1259.78C378.673 1252.15 386.812 1246.28 396.293 1242.15C405.978 1238.03 416.488 1235.97 427.824 1235.97C438.952 1235.97 448.946 1237.83 457.809 1241.54C466.876 1245.25 474.502 1250.6 480.684 1257.61C486.867 1264.41 491.504 1272.55 494.595 1282.03C497.686 1291.31 499.025 1301.61 498.614 1312.95L498.305 1321.3H361.671V1307.08H489.958L483.157 1312.64V1305.22C483.157 1296.98 481.096 1288.73 476.975 1280.49C473.058 1272.25 466.979 1265.34 458.736 1259.78C450.492 1254.21 440.085 1251.43 427.515 1251.43C415.768 1251.43 405.258 1254.01 395.984 1259.16C386.915 1264.31 379.702 1271.83 374.345 1281.73C369.192 1291.62 366.617 1303.88 366.617 1318.51C366.617 1332.53 369.192 1344.79 374.345 1355.3C379.496 1365.61 386.915 1373.65 396.602 1379.42C406.494 1384.98 418.55 1387.77 432.77 1387.77C440.394 1387.77 448.226 1386.53 456.263 1384.06C464.301 1381.58 473.367 1376.22 483.466 1367.98L491.504 1379.42C486.969 1383.75 481.612 1387.77 475.429 1391.47C469.247 1394.98 462.342 1397.86 454.718 1400.13C447.092 1402.19 438.849 1403.22 429.988 1403.22ZM593.837 1403.22C579.205 1403.22 566.118 1399.62 554.578 1392.4C543.037 1385.19 533.866 1375.3 527.066 1362.72C520.47 1350.15 517.174 1335.83 517.174 1319.75C517.174 1303.47 520.574 1289.04 527.375 1276.47C534.381 1263.9 543.655 1254.01 555.196 1246.79C566.736 1239.58 579.617 1235.97 593.837 1235.97C602.08 1235.97 609.912 1237.21 617.331 1239.68C624.75 1242.15 631.447 1245.66 637.424 1250.19C643.399 1254.52 648.552 1259.67 652.88 1265.65C657.208 1271.63 660.299 1278.12 662.154 1285.13L656.899 1279.87V1171.36H672.355V1400.13H657.517L656.281 1358.4L662.154 1354.07C660.299 1360.87 657.208 1367.26 652.88 1373.23C648.552 1379.21 643.399 1384.47 637.424 1389C631.447 1393.54 624.75 1397.04 617.331 1399.51C609.912 1401.99 602.08 1403.22 593.837 1403.22ZM596.001 1387.77C607.748 1387.77 618.258 1384.88 627.532 1379.11C637.011 1373.13 644.43 1365.09 649.789 1354.99C655.353 1344.69 658.135 1332.84 658.135 1319.44C658.135 1306.25 655.455 1294.61 650.098 1284.51C644.739 1274.2 637.32 1266.16 627.841 1260.39C618.567 1254.42 607.953 1251.43 596.001 1251.43C583.841 1251.43 573.022 1254.42 563.543 1260.39C554.269 1266.16 546.952 1274.2 541.595 1284.51C536.236 1294.61 533.557 1306.25 533.557 1319.44C533.557 1332.43 536.132 1344.07 541.286 1354.38C546.643 1364.68 553.96 1372.82 563.234 1378.8C572.713 1384.78 583.636 1387.77 596.001 1387.77ZM785.302 1403.22C769.846 1403.22 756.037 1399.72 743.879 1392.71C731.925 1385.7 722.55 1375.91 715.749 1363.34C708.948 1350.77 705.548 1336.14 705.548 1319.44C705.548 1307.28 707.402 1296.15 711.112 1286.05C715.027 1275.96 720.386 1267.2 727.186 1259.78C733.987 1252.15 742.127 1246.28 751.607 1242.15C761.292 1238.03 771.803 1235.97 783.138 1235.97C794.267 1235.97 804.261 1237.83 813.124 1241.54C822.19 1245.25 829.816 1250.6 835.999 1257.61C842.181 1264.41 846.818 1272.55 849.91 1282.03C853.001 1291.31 854.339 1301.61 853.928 1312.95L853.619 1321.3H716.985V1307.08H845.273L838.472 1312.64V1305.22C838.472 1296.98 836.41 1288.73 832.289 1280.49C828.373 1272.25 822.294 1265.34 814.051 1259.78C805.807 1254.21 795.4 1251.43 782.829 1251.43C771.082 1251.43 760.572 1254.01 751.298 1259.16C742.23 1264.31 735.017 1271.83 729.659 1281.73C724.506 1291.62 721.931 1303.88 721.931 1318.51C721.931 1332.53 724.506 1344.79 729.659 1355.3C734.811 1365.61 742.23 1373.65 751.917 1379.42C761.809 1384.98 773.865 1387.77 788.084 1387.77C795.709 1387.77 803.541 1386.53 811.578 1384.06C819.615 1381.58 828.682 1376.22 838.781 1367.98L846.818 1379.42C842.284 1383.75 836.926 1387.77 830.744 1391.47C824.561 1394.98 817.657 1397.86 810.032 1400.13C802.406 1402.19 794.163 1403.22 785.302 1403.22ZM885.161 1400.13V1239.37H899.999L901.545 1273.38H899.69C901.957 1266.58 906.08 1260.39 912.055 1254.83C918.032 1249.06 925.142 1244.52 933.385 1241.23C941.835 1237.72 950.696 1235.97 959.97 1235.97C971.305 1235.97 980.888 1238.34 988.718 1243.08C996.756 1247.82 1002.73 1255.14 1006.65 1265.03C1010.77 1274.92 1012.83 1287.5 1012.83 1302.75V1400.13H997.374V1303.37C997.374 1291.41 995.726 1281.62 992.428 1274C989.337 1266.16 984.7 1260.39 978.517 1256.68C972.335 1252.77 964.606 1250.81 955.333 1250.81C947.295 1250.81 939.98 1252.25 933.385 1255.14C926.791 1257.82 921.02 1261.53 916.074 1266.27C911.127 1271.01 907.316 1276.47 904.636 1282.65C901.957 1288.63 900.617 1295.02 900.617 1301.82V1400.13H892.889C892.683 1400.13 891.962 1400.13 890.725 1400.13C889.696 1400.13 887.841 1400.13 885.161 1400.13ZM1081.96 1400.13V1196.4H1097.41V1400.13H1081.96ZM1043.32 1253.59V1239.37H1140.69V1253.59H1043.32ZM1175.74 1400.13V1239.37H1191.19V1400.13H1175.74ZM1183.47 1205.67C1178.93 1205.67 1175.43 1204.44 1172.96 1201.96C1170.48 1199.49 1169.25 1196.09 1169.25 1191.76C1169.25 1187.64 1170.48 1184.34 1172.96 1181.87C1175.43 1179.19 1178.93 1177.85 1183.47 1177.85C1188 1177.85 1191.5 1179.09 1193.98 1181.56C1196.45 1184.03 1197.69 1187.43 1197.69 1191.76C1197.69 1195.88 1196.45 1199.28 1193.98 1201.96C1191.5 1204.44 1188 1205.67 1183.47 1205.67ZM1307.48 1403.22C1292.85 1403.22 1279.77 1399.62 1268.22 1392.4C1256.68 1385.19 1247.51 1375.3 1240.71 1362.72C1234.12 1350.15 1230.82 1335.83 1230.82 1319.75C1230.82 1303.47 1234.22 1289.04 1241.02 1276.47C1248.03 1263.9 1257.3 1254.01 1268.84 1246.79C1280.38 1239.58 1293.26 1235.97 1307.48 1235.97C1315.73 1235.97 1323.56 1237.21 1330.98 1239.68C1338.4 1242.15 1345.09 1245.66 1351.07 1250.19C1357.05 1254.52 1362.2 1259.67 1366.53 1265.65C1370.85 1271.63 1373.95 1278.12 1375.8 1285.13L1369.62 1281.11L1371.16 1239.37H1386V1400.13H1370.55V1359.94L1375.8 1354.07C1373.95 1360.87 1370.85 1367.26 1366.53 1373.23C1362.2 1379.21 1357.05 1384.47 1351.07 1389C1345.09 1393.54 1338.4 1397.04 1330.98 1399.51C1323.56 1401.99 1315.73 1403.22 1307.48 1403.22ZM1309.65 1387.77C1321.39 1387.77 1331.9 1384.88 1341.18 1379.11C1350.66 1373.13 1358.08 1365.09 1363.44 1354.99C1369 1344.69 1371.78 1332.84 1371.78 1319.44C1371.78 1306.25 1369.1 1294.61 1363.74 1284.51C1358.39 1274.2 1350.97 1266.16 1341.49 1260.39C1332.21 1254.42 1321.6 1251.43 1309.65 1251.43C1297.49 1251.43 1286.67 1254.42 1277.19 1260.39C1267.92 1266.16 1260.6 1274.2 1255.24 1284.51C1249.88 1294.61 1247.2 1306.25 1247.2 1319.44C1247.2 1332.43 1249.78 1344.07 1254.93 1354.38C1260.29 1364.68 1267.61 1372.82 1276.88 1378.8C1286.36 1384.78 1297.28 1387.77 1309.65 1387.77ZM1431.88 1400.13V1171.36H1447.33V1400.13H1431.88ZM1545.39 1403.22C1531.39 1403.22 1518.91 1400.54 1507.98 1395.18C1497.07 1389.62 1488.73 1382.92 1482.95 1375.09L1494.69 1364.89C1500.26 1372.31 1507.47 1378.08 1516.33 1382.2C1525.2 1386.12 1535.19 1388.07 1546.32 1388.07C1552.5 1388.07 1558.17 1387.46 1563.32 1386.22C1568.48 1384.78 1572.81 1382.82 1576.3 1380.35C1580.01 1377.87 1582.9 1374.88 1584.96 1371.38C1587.03 1367.67 1588.05 1363.55 1588.05 1359.01C1588.05 1350.98 1584.25 1344.17 1576.61 1338.61C1573.12 1336.14 1568.68 1333.87 1563.32 1331.81C1557.97 1329.75 1551.68 1327.69 1544.46 1325.63C1533.55 1322.33 1524.28 1319.24 1516.64 1316.35C1509.02 1313.46 1502.95 1309.86 1498.4 1305.53C1495.11 1302.03 1492.64 1298.32 1490.98 1294.4C1489.34 1290.28 1488.51 1285.85 1488.51 1281.11C1488.51 1274.51 1489.85 1268.54 1492.53 1263.18C1495.22 1257.61 1499.02 1252.77 1503.97 1248.65C1508.91 1244.52 1514.69 1241.43 1521.28 1239.37C1527.88 1237.1 1535.19 1235.97 1543.22 1235.97C1550.86 1235.97 1558.37 1237.1 1565.79 1239.37C1573.21 1241.43 1580.12 1244.42 1586.5 1248.34C1592.9 1252.25 1598.47 1256.79 1603.2 1261.94L1592.68 1273.38C1588.57 1268.84 1584.03 1264.83 1579.08 1261.32C1574.35 1257.82 1569.1 1255.14 1563.32 1253.28C1557.55 1251.22 1551.17 1250.19 1544.15 1250.19C1538.59 1250.19 1533.33 1250.91 1528.39 1252.36C1523.66 1253.8 1519.53 1255.96 1516.02 1258.85C1512.53 1261.53 1509.75 1264.72 1507.68 1268.43C1505.82 1271.94 1504.89 1275.85 1504.89 1280.18C1504.89 1283.48 1505.51 1286.47 1506.75 1289.15C1507.98 1291.62 1509.95 1293.99 1512.62 1296.26C1516.13 1299.14 1520.77 1301.61 1526.53 1303.68C1532.51 1305.74 1539.82 1308 1548.48 1310.48C1556.32 1312.54 1563.23 1314.6 1569.19 1316.66C1575.17 1318.72 1580.32 1321.19 1584.65 1324.08C1591.25 1328.2 1596.09 1333.04 1599.18 1338.61C1602.48 1344.17 1604.12 1350.56 1604.12 1357.78C1604.12 1366.64 1601.65 1374.47 1596.7 1381.27C1591.76 1388.07 1584.86 1393.43 1575.99 1397.35C1567.14 1401.26 1556.93 1403.22 1545.39 1403.22Z" fill="white"/>
</svg>
