<svg width="1652" height="1622" viewBox="0 0 1652 1622" fill="none" xmlns="http://www.w3.org/2000/svg">
<path d="M563.867 622.296C551.873 622.296 542.139 612.562 542.139 600.567V502.702C542.139 453.248 582.38 413.094 631.747 413.094H739.086C751.08 413.094 760.814 422.828 760.814 434.822C760.814 446.816 751.08 456.551 739.086 456.551H631.747C606.281 456.551 585.596 477.236 585.596 502.702V600.654C585.596 612.648 575.861 622.296 563.867 622.296ZM739.086 976.558H631.747C582.293 976.558 542.139 936.316 542.139 886.949V788.997C542.139 777.003 551.873 767.269 563.867 767.269C575.861 767.269 585.596 777.003 585.596 788.997V886.949C585.596 912.415 606.281 933.101 631.747 933.101H739.086C751.08 933.101 760.814 942.835 760.814 954.829C760.814 966.823 751.08 976.558 739.086 976.558ZM1090.04 622.296C1078.05 622.296 1068.32 612.562 1068.32 600.567V502.702C1068.32 477.236 1047.63 456.551 1022.17 456.551H919.606C907.612 456.551 897.878 446.816 897.878 434.822C897.878 422.828 907.612 413.094 919.606 413.094H1022.17C1071.62 413.094 1111.77 453.335 1111.77 502.702V600.654C1111.77 612.648 1102.04 622.296 1090.04 622.296ZM1088.83 715.989H563.867C551.873 715.989 542.139 706.255 542.139 694.261C542.139 682.267 551.873 672.532 563.867 672.532H1088.83C1100.82 672.532 1110.56 682.267 1110.56 694.261C1110.56 706.255 1100.82 715.989 1088.83 715.989ZM1022.51 976.558H915.261C903.267 976.558 893.532 966.823 893.532 954.829C893.532 942.835 903.267 933.101 915.261 933.101H1022.6C1048.07 933.101 1068.75 912.415 1068.75 886.949V788.997C1068.75 777.003 1078.49 767.269 1090.48 767.269C1102.47 767.269 1112.21 777.003 1112.21 788.997V886.949C1112.21 936.403 1071.97 976.558 1022.51 976.558Z" fill="white"/>
<path d="M560.128 1402.55C549.535 1402.55 539.367 1400.96 529.622 1397.78C520.089 1394.6 511.192 1389.94 502.93 1383.79C494.88 1377.43 487.784 1369.69 481.64 1360.57L493.079 1348.8C502.401 1362.37 512.781 1372.13 524.22 1378.06C535.66 1383.79 547.841 1386.65 560.763 1386.65C571.992 1386.65 582.054 1384.74 590.951 1380.93C599.848 1376.9 606.839 1371.49 611.923 1364.71C617.219 1357.71 619.868 1349.86 619.868 1341.17C619.868 1335.23 618.808 1330.15 616.69 1325.9C614.783 1321.66 611.923 1317.95 608.11 1314.77C604.508 1311.59 600.06 1308.84 594.764 1306.5C589.68 1303.96 583.854 1301.73 577.287 1299.83C570.932 1297.71 564.047 1295.58 556.632 1293.46C546.464 1290.5 537.355 1287.42 529.305 1284.24C521.467 1281.06 514.687 1277.24 508.968 1272.79C503.459 1268.34 499.223 1263.04 496.257 1256.89C493.504 1250.74 492.126 1243.21 492.126 1234.31C492.126 1225.62 493.821 1217.67 497.21 1210.46C500.812 1203.25 505.79 1196.99 512.145 1191.69C518.501 1186.39 525.809 1182.36 534.071 1179.61C542.544 1176.64 551.655 1175.15 561.399 1175.15C572.838 1175.15 582.796 1176.85 591.269 1180.24C599.955 1183.42 607.581 1187.98 614.148 1193.92C620.714 1199.85 626.647 1206.85 631.943 1214.91L620.185 1226.36C615.525 1219.15 610.335 1212.89 604.615 1207.59C598.895 1202.29 592.433 1198.26 585.231 1195.51C578.24 1192.54 570.296 1191.06 561.399 1191.06C551.23 1191.06 542.122 1192.96 534.071 1196.78C526.233 1200.39 519.983 1205.47 515.323 1212.05C510.663 1218.62 508.332 1226.15 508.332 1234.63C508.332 1240.56 509.392 1245.76 511.51 1250.21C513.841 1254.66 517.336 1258.59 521.996 1261.98C526.869 1265.16 532.906 1268.13 540.109 1270.88C547.524 1273.43 556.315 1275.97 566.483 1278.52C576.863 1281.06 586.291 1284.03 594.764 1287.42C603.237 1290.81 610.546 1294.84 616.69 1299.51C623.045 1304.17 627.812 1309.79 630.989 1316.36C634.378 1322.94 636.074 1330.89 636.074 1340.22C636.074 1352.09 632.789 1362.8 626.223 1372.34C619.656 1381.67 610.652 1389.09 599.213 1394.6C587.773 1399.9 574.745 1402.55 560.128 1402.55ZM745.313 1402.55C729.425 1402.55 715.23 1398.84 702.733 1391.42C690.445 1384 680.7 1373.82 673.498 1360.89C666.508 1347.96 663.012 1333.11 663.012 1316.36C663.012 1299.61 666.508 1284.77 673.498 1271.84C680.7 1258.91 690.551 1248.83 703.05 1241.62C715.548 1234.2 729.954 1230.49 746.266 1230.49C759.824 1230.49 772.11 1233.14 783.127 1238.44C794.354 1243.74 803.675 1251.17 811.091 1260.71L800.922 1273.11C796.26 1267.39 790.965 1262.62 785.034 1258.8C779.101 1254.77 772.746 1251.7 765.968 1249.58C759.188 1247.46 752.198 1246.4 744.995 1246.4C732.496 1246.4 721.374 1249.47 711.63 1255.62C701.884 1261.55 694.153 1269.82 688.433 1280.43C682.714 1290.81 679.854 1302.79 679.854 1316.36C679.854 1329.93 682.607 1342.02 688.116 1352.62C693.835 1363.22 701.567 1371.6 711.312 1377.75C721.057 1383.68 731.967 1386.65 744.042 1386.65C751.033 1386.65 757.917 1385.59 764.697 1383.47C771.475 1381.35 777.83 1378.38 783.763 1374.56C789.694 1370.54 795.096 1365.66 799.969 1359.94L810.137 1372.34C802.511 1381.88 792.871 1389.3 781.221 1394.6C769.781 1399.9 757.811 1402.55 745.313 1402.55ZM906.285 1402.55C891.245 1402.55 877.793 1398.84 865.929 1391.42C854.067 1384 844.639 1373.82 837.648 1360.89C830.87 1347.96 827.479 1333.22 827.479 1316.68C827.479 1299.93 830.975 1285.09 837.966 1272.16C845.169 1259.22 854.702 1249.05 866.564 1241.62C878.428 1234.2 891.668 1230.49 906.285 1230.49C914.76 1230.49 922.809 1231.77 930.435 1234.31C938.061 1236.85 944.947 1240.46 951.09 1245.12C957.234 1249.58 962.529 1254.88 966.978 1261.02C971.427 1267.17 974.604 1273.85 976.511 1281.06L970.156 1276.93L971.744 1233.99H986.997V1399.37H971.109V1358.03L976.511 1351.98C974.604 1358.98 971.427 1365.55 966.978 1371.7C962.529 1377.85 957.234 1383.26 951.09 1387.92C944.947 1392.59 938.061 1396.19 930.435 1398.74C922.809 1401.28 914.76 1402.55 906.285 1402.55ZM908.509 1386.65C920.584 1386.65 931.388 1383.68 940.921 1377.75C950.667 1371.6 958.294 1363.33 963.8 1352.94C969.52 1342.34 972.38 1330.15 972.38 1316.36C972.38 1302.79 969.627 1290.81 964.118 1280.43C958.611 1269.82 950.985 1261.55 941.239 1255.62C931.706 1249.47 920.797 1246.4 908.509 1246.4C896.012 1246.4 884.89 1249.47 875.144 1255.62C865.611 1261.55 858.091 1269.82 852.583 1280.43C847.076 1290.81 844.321 1302.79 844.321 1316.36C844.321 1329.72 846.969 1341.7 852.265 1352.3C857.773 1362.9 865.293 1371.28 874.826 1377.43C884.572 1383.58 895.799 1386.65 908.509 1386.65ZM1033.53 1399.37V1233.99H1048.78L1050.37 1268.98H1048.46C1050.79 1261.98 1055.03 1255.62 1061.17 1249.89C1067.31 1243.96 1074.62 1239.29 1083.1 1235.9C1091.78 1232.29 1100.89 1230.49 1110.43 1230.49C1122.08 1230.49 1131.93 1232.93 1139.98 1237.81C1148.24 1242.69 1154.38 1250.21 1158.41 1260.39C1162.64 1270.57 1164.76 1283.5 1164.76 1299.19V1399.37H1148.87V1299.83C1148.87 1287.53 1147.18 1277.46 1143.79 1269.61C1140.61 1261.55 1135.85 1255.62 1129.49 1251.8C1123.14 1247.77 1115.19 1245.76 1105.66 1245.76C1097.4 1245.76 1089.88 1247.24 1083.1 1250.21C1076.32 1252.97 1070.39 1256.78 1065.3 1261.66C1060.22 1266.54 1056.3 1272.16 1053.55 1278.52C1050.79 1284.67 1049.41 1291.24 1049.41 1298.24V1399.37H1041.47C1041.26 1399.37 1040.52 1399.37 1039.25 1399.37C1038.19 1399.37 1036.28 1399.37 1033.53 1399.37Z" fill="white"/>
</svg>
