<svg width="1652" height="1622" viewBox="0 0 1652 1622" fill="none" xmlns="http://www.w3.org/2000/svg">
<path d="M292.12 1402.55C275.811 1402.55 260.773 1399.8 247.008 1394.28C233.452 1388.56 221.592 1380.61 211.426 1370.43C201.471 1360.04 193.74 1347.85 188.235 1333.86C182.727 1319.86 179.975 1304.6 179.975 1288.06C179.975 1271.52 182.621 1256.47 187.917 1242.9C193.211 1229.11 200.729 1217.14 210.473 1206.96C220.426 1196.78 231.97 1188.94 245.102 1183.42C258.445 1177.91 273.058 1175.15 288.943 1175.15C298.896 1175.15 308.958 1176.85 319.124 1180.24C329.29 1183.42 338.714 1187.88 347.398 1193.6C356.081 1199.33 363.283 1205.9 369.002 1213.32L357.247 1225.72C352.586 1218.94 346.55 1213 339.138 1207.91C331.725 1202.61 323.676 1198.48 314.994 1195.51C306.31 1192.54 297.626 1191.06 288.943 1191.06C275.6 1191.06 263.21 1193.49 251.773 1198.37C240.547 1203.04 230.805 1209.71 222.545 1218.41C214.497 1227.1 208.143 1237.38 203.484 1249.26C199.036 1261.13 196.812 1274.06 196.812 1288.06C196.812 1302.26 199.141 1315.41 203.802 1327.5C208.46 1339.58 215.026 1350.08 223.498 1358.98C232.181 1367.67 242.242 1374.46 253.679 1379.34C265.327 1384.21 278.142 1386.65 292.12 1386.65C300.591 1386.65 308.958 1385.48 317.218 1383.15C325.689 1380.61 333.314 1377.22 340.092 1372.97C346.868 1368.52 352.269 1363.54 356.294 1358.03L364.872 1372.02C359.788 1377.96 353.222 1383.26 345.175 1387.92C337.337 1392.38 328.759 1395.98 319.442 1398.74C310.333 1401.28 301.227 1402.55 292.12 1402.55ZM473.467 1402.55C456.947 1402.55 442.228 1398.84 429.307 1391.42C416.6 1384 406.54 1373.72 399.127 1360.57C391.926 1347.42 388.325 1332.48 388.325 1315.73C388.325 1299.19 391.926 1284.56 399.127 1271.84C406.54 1258.91 416.6 1248.83 429.307 1241.62C442.228 1234.2 456.947 1230.49 473.467 1230.49C489.987 1230.49 504.601 1234.2 517.308 1241.62C530.229 1248.83 540.288 1258.91 547.489 1271.84C554.691 1284.56 558.291 1299.19 558.291 1315.73C558.291 1332.48 554.691 1347.42 547.489 1360.57C540.288 1373.72 530.229 1384 517.308 1391.42C504.601 1398.84 489.987 1402.55 473.467 1402.55ZM473.467 1386.65C486.599 1386.65 498.247 1383.58 508.413 1377.43C518.792 1371.28 526.839 1362.9 532.557 1352.3C538.489 1341.7 541.453 1329.51 541.453 1315.73C541.453 1302.37 538.489 1290.5 532.557 1280.11C526.839 1269.51 518.792 1261.24 508.413 1255.3C498.247 1249.36 486.599 1246.4 473.467 1246.4C460.124 1246.4 448.264 1249.36 437.885 1255.3C427.719 1261.24 419.672 1269.51 413.741 1280.11C408.022 1290.5 405.163 1302.37 405.163 1315.73C405.163 1329.51 408.022 1341.7 413.741 1352.3C419.672 1362.9 427.719 1371.28 437.885 1377.43C448.264 1383.58 460.124 1386.65 473.467 1386.65ZM591.532 1399.37V1233.99H606.781L608.37 1268.98H606.464C608.794 1261.98 613.029 1255.62 619.172 1249.89C625.314 1243.96 632.621 1239.29 641.092 1235.9C649.776 1232.29 658.883 1230.49 668.414 1230.49C680.062 1230.49 689.91 1232.93 697.959 1237.81C706.219 1242.69 712.362 1250.21 716.385 1260.39C720.622 1270.57 722.739 1283.5 722.739 1299.19V1399.37H706.855V1299.83C706.855 1287.53 705.16 1277.46 701.771 1269.61C698.595 1261.55 693.829 1255.62 687.475 1251.8C681.121 1247.77 673.179 1245.76 663.648 1245.76C655.388 1245.76 647.87 1247.24 641.092 1250.21C634.314 1252.97 628.385 1256.78 623.301 1261.66C618.218 1266.54 614.3 1272.16 611.547 1278.52C608.794 1284.67 607.417 1291.24 607.417 1298.24V1399.37H599.475C599.263 1399.37 598.521 1399.37 597.251 1399.37C596.191 1399.37 594.285 1399.37 591.532 1399.37ZM793.78 1399.37V1189.78H809.665V1399.37H793.78ZM754.068 1248.62V1233.99H854.141V1248.62H754.068ZM947.065 1402.55C932.027 1402.55 918.579 1398.84 906.718 1391.42C894.857 1384 885.433 1373.82 878.443 1360.89C871.665 1347.96 868.277 1333.22 868.277 1316.68C868.277 1299.93 871.772 1285.09 878.761 1272.16C885.962 1259.22 895.492 1249.05 907.353 1241.62C919.214 1234.2 932.451 1230.49 947.065 1230.49C955.536 1230.49 963.585 1231.77 971.209 1234.31C978.834 1236.85 985.717 1240.46 991.86 1245.12C998.002 1249.58 1003.3 1254.88 1007.74 1261.02C1012.19 1267.17 1015.37 1273.85 1017.27 1281.06L1010.92 1276.93L1012.51 1233.99H1027.76V1399.37H1011.87V1358.03L1017.27 1351.98C1015.37 1358.98 1012.19 1365.55 1007.74 1371.7C1003.3 1377.85 998.002 1383.26 991.86 1387.92C985.717 1392.59 978.834 1396.19 971.209 1398.74C963.585 1401.28 955.536 1402.55 947.065 1402.55ZM949.289 1386.65C961.361 1386.65 972.163 1383.68 981.693 1377.75C991.435 1371.6 999.06 1363.33 1004.57 1352.94C1010.29 1342.34 1013.14 1330.15 1013.14 1316.36C1013.14 1302.79 1010.39 1290.81 1004.88 1280.43C999.378 1269.82 991.753 1261.55 982.011 1255.62C972.48 1249.47 961.572 1246.4 949.289 1246.4C936.792 1246.4 925.673 1249.47 915.931 1255.62C906.4 1261.55 898.882 1269.82 893.375 1280.43C887.868 1290.81 885.115 1302.79 885.115 1316.36C885.115 1329.72 887.763 1341.7 893.057 1352.3C898.564 1362.9 906.083 1371.28 915.613 1377.43C925.355 1383.58 936.581 1386.65 949.289 1386.65ZM1143.53 1402.55C1127.65 1402.55 1113.46 1398.84 1100.96 1391.42C1088.68 1384 1078.94 1373.82 1071.73 1360.89C1064.74 1347.96 1061.25 1333.11 1061.25 1316.36C1061.25 1299.61 1064.74 1284.77 1071.73 1271.84C1078.94 1258.91 1088.78 1248.83 1101.28 1241.62C1113.78 1234.2 1128.18 1230.49 1144.49 1230.49C1158.04 1230.49 1170.32 1233.14 1181.34 1238.44C1192.56 1243.74 1201.88 1251.17 1209.29 1260.71L1199.13 1273.11C1194.47 1267.39 1189.17 1262.62 1183.24 1258.8C1177.31 1254.77 1170.96 1251.7 1164.18 1249.58C1157.41 1247.46 1150.42 1246.4 1143.21 1246.4C1130.72 1246.4 1119.6 1249.47 1109.86 1255.62C1100.11 1261.55 1092.38 1269.82 1086.67 1280.43C1080.95 1290.81 1078.09 1302.79 1078.09 1316.36C1078.09 1329.93 1080.84 1342.02 1086.35 1352.62C1092.07 1363.22 1099.8 1371.6 1109.54 1377.75C1119.28 1383.68 1130.19 1386.65 1142.26 1386.65C1149.25 1386.65 1156.14 1385.59 1162.91 1383.47C1169.69 1381.35 1176.04 1378.38 1181.97 1374.56C1187.9 1370.54 1193.31 1365.66 1198.18 1359.93L1208.34 1372.34C1200.72 1381.88 1191.08 1389.3 1179.43 1394.6C1167.99 1399.9 1156.03 1402.55 1143.53 1402.55ZM1263.8 1399.37V1189.78H1279.69V1399.37H1263.8ZM1224.09 1248.62V1233.99H1324.17V1248.62H1224.09ZM1412.77 1402.55C1398.37 1402.55 1385.56 1399.8 1374.33 1394.28C1363.11 1388.56 1354.53 1381.67 1348.6 1373.61L1360.67 1363.12C1366.39 1370.75 1373.8 1376.68 1382.91 1380.93C1392.02 1384.95 1402.29 1386.97 1413.72 1386.97C1420.08 1386.97 1425.9 1386.33 1431.2 1385.06C1436.49 1383.58 1440.94 1381.56 1444.54 1379.02C1448.35 1376.47 1451.32 1373.4 1453.44 1369.79C1455.55 1365.98 1456.61 1361.74 1456.61 1357.07C1456.61 1348.8 1452.69 1341.81 1444.86 1336.08C1441.26 1333.54 1436.7 1331.21 1431.2 1329.09C1425.69 1326.97 1419.23 1324.84 1411.82 1322.72C1400.59 1319.33 1391.06 1316.15 1383.23 1313.18C1375.39 1310.21 1369.14 1306.5 1364.48 1302.05C1361.09 1298.45 1358.55 1294.63 1356.86 1290.6C1355.16 1286.36 1354.32 1281.8 1354.32 1276.93C1354.32 1270.14 1355.69 1263.99 1358.45 1258.48C1361.2 1252.76 1365.12 1247.77 1370.2 1243.53C1375.28 1239.29 1381.21 1236.11 1387.99 1233.99C1394.77 1231.66 1402.29 1230.49 1410.55 1230.49C1418.38 1230.49 1426.11 1231.66 1433.74 1233.99C1441.36 1236.11 1448.46 1239.19 1455.02 1243.21C1461.59 1247.24 1467.31 1251.91 1472.18 1257.21L1461.38 1268.98C1457.14 1264.31 1452.48 1260.18 1447.4 1256.57C1442.53 1252.97 1437.13 1250.21 1431.2 1248.3C1425.27 1246.18 1418.7 1245.12 1411.5 1245.12C1405.78 1245.12 1400.38 1245.87 1395.3 1247.35C1390.43 1248.83 1386.19 1251.06 1382.59 1254.03C1378.99 1256.78 1376.13 1260.07 1374.01 1263.89C1372.11 1267.49 1371.15 1271.52 1371.15 1275.97C1371.15 1279.36 1371.79 1282.44 1373.06 1285.2C1374.33 1287.74 1376.34 1290.18 1379.1 1292.51C1382.7 1295.48 1387.46 1298.02 1393.39 1300.14C1399.53 1302.26 1407.05 1304.6 1415.95 1307.14C1424 1309.26 1431.09 1311.38 1437.23 1313.5C1443.38 1315.62 1448.67 1318.17 1453.12 1321.13C1459.9 1325.38 1464.87 1330.36 1468.05 1336.08C1471.44 1341.81 1473.13 1348.38 1473.13 1355.8C1473.13 1364.92 1470.59 1372.97 1465.51 1379.97C1460.43 1386.97 1453.33 1392.48 1444.22 1396.51C1435.12 1400.54 1424.63 1402.55 1412.77 1402.55Z" fill="white"/>
<path d="M849.749 653.026C902.215 653.026 944.748 610.494 944.748 558.028C944.748 505.562 902.215 463.029 849.749 463.029C797.283 463.029 754.751 505.562 754.751 558.028C754.751 610.494 797.283 653.026 849.749 653.026Z" stroke="white" stroke-width="28" stroke-linecap="round" stroke-linejoin="round"/>
<path d="M517.256 463.029H564.755V415.53C564.755 363.063 607.287 320.531 659.753 320.531H1039.75C1092.21 320.531 1134.75 363.063 1134.75 415.53V890.521C1134.75 942.987 1092.21 985.52 1039.75 985.52H659.753C607.287 985.52 564.755 942.987 564.755 890.521V843.022H517.256" stroke="white" stroke-width="28" stroke-linecap="round" stroke-linejoin="round"/>
<path d="M517.256 653.025H564.755" stroke="white" stroke-width="28" stroke-linecap="round" stroke-linejoin="round"/>
<path d="M517.256 558.027H564.755" stroke="white" stroke-width="28" stroke-linecap="round" stroke-linejoin="round"/>
<path d="M517.256 748.025H564.755" stroke="white" stroke-width="28" stroke-linecap="round" stroke-linejoin="round"/>
<path fill-rule="evenodd" clip-rule="evenodd" d="M992.247 795.523V748.024C992.247 695.558 949.715 653.025 897.249 653.025H802.25C749.784 653.025 707.252 695.558 707.252 748.024V795.523C707.252 821.756 728.518 843.022 754.751 843.022H944.748C970.981 843.022 992.247 821.756 992.247 795.523Z" stroke="white" stroke-width="28" stroke-linecap="round" stroke-linejoin="round"/>
</svg>
